<svg width="50" height="50" viewBox="0 0 50 50" fill="none" xmlns="http://www.w3.org/2000/svg">
<path d="M43.75 10.9453H6.25C5.39583 10.9453 4.6875 10.237 4.6875 9.38281C4.6875 8.52865 5.39583 7.82031 6.25 7.82031H43.75C44.6042 7.82031 45.3125 8.52865 45.3125 9.38281C45.3125 10.237 44.6042 10.9453 43.75 10.9453Z" fill="white"/>
<path d="M43.75 21.3516H6.25C5.39583 21.3516 4.6875 20.6432 4.6875 19.7891C4.6875 18.9349 5.39583 18.2266 6.25 18.2266H43.75C44.6042 18.2266 45.3125 18.9349 45.3125 19.7891C45.3125 20.6432 44.6042 21.3516 43.75 21.3516Z" fill="white"/>
<path d="M43.75 31.7734H6.25C5.39583 31.7734 4.6875 31.0651 4.6875 30.2109C4.6875 29.3568 5.39583 28.6484 6.25 28.6484H43.75C44.6042 28.6484 45.3125 29.3568 45.3125 30.2109C45.3125 31.0651 44.6042 31.7734 43.75 31.7734Z" fill="white"/>
<path d="M43.75 42.1914H6.25C5.39583 42.1914 4.6875 41.4831 4.6875 40.6289C4.6875 39.7747 5.39583 39.0664 6.25 39.0664H43.75C44.6042 39.0664 45.3125 39.7747 45.3125 40.6289C45.3125 41.4831 44.6042 42.1914 43.75 42.1914Z" fill="white"/>
</svg>
