<svg width="50" height="50" viewBox="0 0 50 50" fill="none" xmlns="http://www.w3.org/2000/svg">
<path d="M43.75 10.9375H6.25C5.39583 10.9375 4.6875 10.2292 4.6875 9.375C4.6875 8.52083 5.39583 7.8125 6.25 7.8125H43.75C44.6042 7.8125 45.3125 8.52083 45.3125 9.375C45.3125 10.2292 44.6042 10.9375 43.75 10.9375Z" fill="white"/>
<path d="M43.7487 21.3555H24.0195C23.1654 21.3555 22.457 20.6471 22.457 19.793C22.457 18.9388 23.1654 18.2305 24.0195 18.2305H43.7487C44.6029 18.2305 45.3112 18.9388 45.3112 19.793C45.3112 20.6471 44.6029 21.3555 43.7487 21.3555Z" fill="white"/>
<path d="M43.75 31.7695H6.25C5.39583 31.7695 4.6875 31.0612 4.6875 30.207C4.6875 29.3529 5.39583 28.6445 6.25 28.6445H43.75C44.6042 28.6445 45.3125 29.3529 45.3125 30.207C45.3125 31.0612 44.6042 31.7695 43.75 31.7695Z" fill="white"/>
<path d="M43.7487 42.1875H24.0195C23.1654 42.1875 22.457 41.4792 22.457 40.625C22.457 39.7708 23.1654 39.0625 24.0195 39.0625H43.7487C44.6029 39.0625 45.3112 39.7708 45.3112 40.625C45.3112 41.4792 44.6029 42.1875 43.7487 42.1875Z" fill="white"/>
</svg>
